<?xml version="1.0" standalone="no"?>
<!DOCTYPE svg PUBLIC "-//W3C//DTD SVG 1.1//EN" "http://www.w3.org/Graphics/SVG/1.1/DTD/svg11.dtd">
<svg xmlns="http://www.w3.org/2000/svg">
<defs >
<font id="LeagueSpartan" horiz-adv-x="987" ><font-face
    font-family="League Spartan Thin Black"
    units-per-em="2000"
    panose-1="0 0 0 0 0 0 0 0 0 0"
    ascent="1400"
    descent="-440"
    alphabetic="0" />
<glyph unicode=" " horiz-adv-x="552" />
<glyph unicode="!" horiz-adv-x="598" d="M155 475L77 1376H496L419 475H155ZM286 -24Q228 -24 180 5T102 82T72 190Q72 279 135 342T286 406Q376 406 439 343T502 190Q502 102 439 39T286 -24Z" />
<glyph unicode="&quot;" horiz-adv-x="861" d="M224 1366Q286 1366 336 1324T387 1230V1222Q387 1200 375 1143T342 1011T299 855T254 704H160Q144 774 127 854T95 1010T71 1143T62 1222V1230Q62 1282 112 1324T224 1366ZM611 1366Q673 1366 723 1324T774 1230V1222Q774
1200 762 1143T729 1011T686 855T642 704H547Q532 774 515 854T483 1010T459 1143T450 1222V1230Q450 1282 500 1324T611 1366Z" />
<glyph unicode="#" horiz-adv-x="1373" d="M485 1320H744L395 0H136L485 1320ZM933 1320H1192L843 0H584L933 1320ZM258 997H1250L1176 749H184L258 997ZM154 573H1146L1072 325H80L154 573Z" />
<glyph unicode="$" horiz-adv-x="1163" d="M458 1534H672V1307H458V1534ZM458 21H672V-206H458V21ZM594 1344Q722 1344 821 1317T982 1258T1058 1216L875 906Q859 918 820 939T731 978T637 995Q584 995 549 981T514 931Q514 907 533 887T597 846T722 798Q799 773
863 736T973 648T1046 531T1072 382Q1072 272 1027 195T905 69T736 -1T546 -24Q399 -24 285 8T100 77T13 131L202 454Q213 445 249 425T337 383T444 346T546 330Q609 330 639 348T669 400Q669 424 651 445T585 489T450 544Q366 575 290 625T166 755T118 955Q118
1077 186 1164T363 1297T594 1344Z" />
<glyph unicode="%" horiz-adv-x="1680" d="M1142 1320H1390L542 0H294L1142 1320ZM32 1029Q32 1124 80 1203T217 1330T424 1378Q543 1378 631 1330T767 1203T816 1029Q816 936 768 857T631 729T424 680Q306 680 218 728T81 856T32 1029ZM294 1029Q294 970 330
932T424 893Q482 893 516 931T550 1029Q550 1088 516 1128T424 1168Q366 1168 330 1128T294 1029ZM864 291Q864 386 912 465T1049 592T1256 640Q1375 640 1463 592T1599 465T1648 291Q1648 199 1600 119T1463 -9T1256 -58Q1138 -58 1050 -10T913 119T864 291ZM1126
291Q1126 233 1162 194T1256 155Q1314 155 1348 194T1382 291Q1382 350 1348 390T1256 430Q1198 430 1162 390T1126 291Z" />
<glyph unicode="&amp;" horiz-adv-x="1432" d="M16 373Q16 444 41 499T106 595T190 664T274 710T338 733Q312 744 286 766T239 822T205 898T192 995Q192 1085 242 1164T394 1294T651 1344Q798 1344 892 1297T1031 1170T1077 989Q1077 937 1054 889T992 798T911
723T826 667L950 542Q976 558 1027 606T1139 731L1394 496Q1375 471 1344 437T1277 368T1202 304L1493 0H1010L907 107Q856 72 797 42T662 -6T485 -24Q368 -24 261 19T85 150T16 373ZM523 506Q515 501 507 493T490 476T475 456T465 434T461 411Q461 384 473 368T508
345T562 338Q580 338 598 342T632 353T658 366L523 506ZM650 1056Q624 1056 606 1047T580 1023T571 990Q571 971 579 952T598 916T619 888T632 874Q637 877 652 888T684 915T713 951T726 990Q726 1017 708 1036T650 1056Z" />
<glyph unicode="&apos;" horiz-adv-x="506" d="M240 1366Q302 1366 352 1321T403 1182Q403 1058 359 932T270 704H176Q155 771 132 851T94 1016T78 1182Q78 1276 128 1321T240 1366Z" />
<glyph unicode="(" horiz-adv-x="685" d="M358 -424Q295 -349 227 -215T112 96T64 475Q64 631 94 773T174 1037T281 1252T390 1403L614 1310Q568 1254 518 1137T432 852T397 475Q397 278 427 117T501 -159T586 -331L358 -424Z" />
<glyph unicode=")" horiz-adv-x="685" d="M320 -424L92 -331Q133 -274 177 -160T251 116T281 475Q281 684 246 852T161 1137T64 1310L288 1403Q341 1346 397 1253T503 1038T583 774T614 475Q614 273 567 96T451 -215T320 -424Z" />
<glyph unicode="*" horiz-adv-x="821" d="M482 1206L656 1258L706 1106L520 1046L648 906L507 805L398 941L293 803L150 906L277 1046L90 1106L139 1258L314 1206V1384H482V1206Z" />
<glyph unicode="+" horiz-adv-x="1053" d="M674 506V253H357V506H104V821H357V1074H674V821H925V506H674Z" />
<glyph unicode="," horiz-adv-x="598" d="M286 402Q372 402 433 343T494 163Q494 64 452 -33T340 -210T189 -334L98 -227Q135 -207 178 -173T259 -94T312 0Q294 -11 254 -11Q187 -11 132 42T77 192Q77 250 105 297T182 373T286 402Z" />
<glyph unicode="-" horiz-adv-x="747" d="M104 288V621H619V288H104Z" />
<glyph unicode="." horiz-adv-x="598" d="M286 -24Q198 -24 135 39T72 190Q72 279 135 342T286 405Q375 405 438 342T501 190Q501 102 438 39T286 -24Z" />
<glyph unicode="/" horiz-adv-x="1018" d="M675 1376H978L318 -192H16L675 1376Z" />
<glyph unicode="0" horiz-adv-x="1203" d="M27 659Q27 828 71 956T194 1170T374 1300T590 1344Q705 1344 806 1301T986 1171T1108 956T1152 659Q1152 473 1108 343T986 132T807 14T590 -24Q476 -24 375 13T195 131T72 342T27 659ZM414 659Q414 540 432 464T490
351T590 314Q652 314 690 351T747 464T765 659Q765 765 747 842T691 963T590 1006Q529 1006 490 963T433 843T414 659Z" />
<glyph unicode="1" horiz-adv-x="686" d="M205 826L8 730V1094L421 1320H592V0H205V826Z" />
<glyph unicode="2" horiz-adv-x="1174" d="M574 1019Q519 1019 477 989T405 919T359 845T341 805L13 957Q15 972 32 1015T87 1114T188 1222T347 1309T574 1344Q736 1344 838 1297T995 1179T1072 1031T1094 898Q1094 811 1063 736T983 598T879 487T773 404T690
353T654 334H1083V0H77V304Q81 306 127 336T245 415T396 527T546 656T661 787T706 904Q706 966 672 992T574 1019Z" />
<glyph unicode="3" horiz-adv-x="1104" d="M50 1019Q63 1071 99 1128T196 1234T342 1313T539 1344Q664 1344 767 1298T932 1167T994 962Q994 902 974 851T923 765T858 718Q901 710 945 672T1020 570T1051 424Q1051 292 983 191T799 33T534 -24Q374 -24 264 33T89
173T5 333L360 506Q370 464 393 418T451 339T533 307Q575 307 605 323T653 368T670 437Q670 476 652 503T603 543T533 557H507V827H541Q574 827 598 840T636 877T650 933Q650 977 620 1007T536 1038Q498 1038 468 1023T415 982T378 928T358 872L50 1019Z" />
<glyph unicode="4" horiz-adv-x="1098" d="M912 1320V613H1066V278H912V0H526V278H-10V581L459 1320H912ZM526 613V851H523L373 613H526Z" />
<glyph unicode="5" horiz-adv-x="1096" d="M346 427Q357 393 371 368T405 327T450 304T507 296Q572 296 607 337T642 443Q642 507 607 545T507 584Q465 584 435 570T386 538T360 507L45 624L166 1320H966V986H488L461 850Q467 856 491 865T551 881T627 888Q723
888 816 846T970 711T1032 467Q1032 315 964 205T780 35T523 -24Q413 -24 329 1T183 69T80 168T16 286L346 427Z" />
<glyph unicode="6" horiz-adv-x="1142" d="M653 893Q751 893 846 842T1004 691T1067 451Q1067 312 999 205T815 37T558 -24Q417 -24 300 32T113 196T43 459Q43 635 98 752T221 950L528 1320H978L590 880Q596 885 609 889T653 893ZM555 288Q596 288 630 308T684
362T704 438Q704 479 684 513T630 567T555 587Q514 587 480 567T425 513T405 438Q405 397 425 363T479 308T555 288Z" />
<glyph unicode="7" horiz-adv-x="1125" d="M93 1320H1109V1066L502 0H77L658 986H93V1320Z" />
<glyph unicode="8" horiz-adv-x="1139" d="M560 -24Q427 -24 309 25T117 164T43 371Q43 459 71 523T151 633T267 712Q217 744 179 781T120 868T99 992Q99 1102 162 1180T329 1301T558 1344Q686 1344 788 1302T951 1181T1011 992Q1011 883 967 822T850 712Q915
679 965 633T1045 523T1074 371Q1074 253 1001 164T811 26T560 -24ZM558 310Q590 310 615 325T656 367T672 424Q672 455 657 481T616 522T558 538Q527 538 502 523T461 481T445 424Q445 393 460 367T501 326T558 310ZM560 830Q590 830 614 845T654 885T669 941Q669
971 654 995T615 1035T560 1050Q530 1050 505 1035T465 996T450 941Q450 911 465 886T505 845T560 830Z" />
<glyph unicode="9" horiz-adv-x="1142" d="M115 0L503 440Q497 436 484 432T440 427Q343 427 248 478T89 629T26 869Q26 1008 94 1115T278 1283T535 1344Q677 1344 793 1288T980 1124T1050 861Q1050 686 995 568T872 370L565 0H115ZM538 733Q580 733 614 753T668
807T688 882Q688 924 668 958T614 1012T538 1032Q497 1032 463 1012T409 958T389 882Q389 841 409 807T463 753T538 733Z" />
<glyph unicode=":" horiz-adv-x="598" d="M302 -24Q214 -24 151 39T88 190Q88 279 151 342T302 405Q391 405 454 342T517 190Q517 102 454 39T302 -24ZM302 520Q214 520 151 583T88 734Q88 823 151 886T302 949Q391 949 454 886T517 734Q517 646 454 583T302 520Z" />
<glyph unicode=";" horiz-adv-x="598" d="M281 520Q193 520 130 583T67 734Q67 823 130 886T281 949Q370 949 433 886T496 734Q496 646 433 583T281 520ZM529 402Q615 402 676 343T737 163Q737 64 695 -33T583 -210T432 -334L341 -227Q378 -207 421 -173T502 -94T555
0Q537 -11 497 -11Q430 -11 375 42T320 192Q320 250 348 297T425 373T529 402Z" />
<glyph unicode="&lt;" horiz-adv-x="1099" d="M990 162L86 525V806L990 1171V834L496 664L990 498V162Z" />
<glyph unicode="=" horiz-adv-x="1053" d="M86 710V1027H944V710H86ZM86 298V614H944V298H86Z" />
<glyph unicode="&gt;" horiz-adv-x="1099" d="M82 162V498L576 664L82 834V1171L986 806V525L82 162Z" />
<glyph unicode="?" horiz-adv-x="994" d="M285 475V622Q285 692 319 742T410 821Q441 837 467 856T510 898T526 950Q526 989 505 1005T438 1022Q400 1022 375 1002T335 952T309 896L-10 1021Q-8 1033 8 1069T60 1151T153 1242T294 1315T490 1344Q618 1344 721
1305T886 1191T947 1013Q947 924 904 861T807 758T717 698Q663 668 642 626T621 522V475H285ZM459 -24Q371 -24 308 39T245 190Q245 280 308 343T459 406Q549 406 613 343T677 190Q677 102 613 39T459 -24Z" />
<glyph unicode="@" horiz-adv-x="1514" d="M749 -24Q602 -24 475 25T251 166T100 382T45 661Q45 813 102 938T258 1155T488 1295T765 1344Q905 1344 1035 1298T1269 1168T1433 966T1494 707Q1494 579 1440 503T1304 394T1141 360Q1085 360 1036 385T958 440Q940
414 913 387T836 341T701 323Q613 323 541 369T425 492T381 661Q381 752 419 821T522 930T669 970Q696 970 725 966T785 949T850 907V952H1083V685Q1083 665 1087 647T1104 617T1144 605Q1171 605 1183 617T1198 656T1202 723Q1202 802 1170 867T1079 981T940 1056T765
1083Q672 1083 594 1049T458 956T368 821T336 661Q336 577 366 505T451 377T582 292T749 261Q808 261 853 271T929 297T971 326L1210 120Q1186 89 1126 56T971 -1T749 -24ZM771 573Q803 573 826 596T850 653Q850 675 839 692T811 720T771 731Q737 731 714 708T691
653Q691 619 714 596T771 573Z" />
<glyph unicode="A" horiz-adv-x="1451" d="M512 1320H891L1435 0H1022L938 229H467L382 0H-32L512 1320ZM597 565H808L704 856H701L597 565Z" />
<glyph unicode="B" horiz-adv-x="1154" d="M78 1320H590Q706 1320 804 1288T961 1184T1021 994Q1021 919 994 861T918 764T806 710Q864 702 912 679T995 615T1050 516T1070 378Q1070 265 1017 180T865 48T629 0H78V1320ZM466 306H520Q563 306 594 315T643 349T661
418Q661 484 623 504T520 525H466V306ZM466 824H518Q555 824 581 832T622 863T637 923Q637 981 606 997T518 1014H466V824Z" />
<glyph unicode="C" horiz-adv-x="1306" d="M803 360Q873 360 938 382T1040 426L1205 98Q1157 58 1042 17T771 -24Q625 -24 495 26T265 169T107 385T50 658Q50 806 107 931T264 1149T494 1293T771 1344Q927 1344 1042 1303T1205 1222L1040 894Q1004 916 939 938T803
960Q708 960 644 933T542 862T487 765T470 661Q470 609 486 556T541 459T644 387T803 360Z" />
<glyph unicode="D" horiz-adv-x="1243" d="M72 1320H528Q739 1320 879 1236T1091 1002T1162 661Q1162 468 1091 319T880 85T528 0H72V1320ZM459 979V341H493Q576 341 633 383T720 497T750 659Q750 749 721 821T634 936T493 979H459Z" />
<glyph unicode="E" horiz-adv-x="1082" d="M64 1320H950V984H451V824H950V499H451V336H950V0H64V1320Z" />
<glyph unicode="F" horiz-adv-x="995" d="M78 1320H893V984H466V829H858V494H466V0H78V1320Z" />
<glyph unicode="G" horiz-adv-x="1492" d="M727 752H1404V661Q1404 516 1357 392T1222 174T1009 28T731 -24Q572 -24 445 28T226 173T87 391T38 661Q38 805 86 929T226 1147T444 1292T731 1344Q875 1344 980 1313T1157 1233T1275 1127T1348 1020L976 852Q948 900
894 942T731 984Q666 984 613 959T521 889T463 786T442 661Q442 594 462 536T521 433T612 363T731 338Q783 338 824 345T895 368T942 407T965 462H727V752Z" />
<glyph unicode="H" horiz-adv-x="1302" d="M784 494H451V0H64V1320H451V829H784V1320H1170V0H784V494Z" />
<glyph unicode="I" horiz-adv-x="592" d="M72 1320H459V0H72V1320Z" />
<glyph unicode="J" horiz-adv-x="850" d="M730 410Q730 272 673 175T514 27T280 -24Q191 -24 121 -3T8 44T-45 82L93 419Q106 403 126 387T171 361T219 350Q243 350 271 358T321 396T342 493V1320H730V410Z" />
<glyph unicode="K" horiz-adv-x="1258" d="M749 693L1224 0H763L416 555V0H29V1320H416V824L730 1320H1165L749 693Z" />
<glyph unicode="L" horiz-adv-x="1024" d="M78 1320H466V336H917V0H78V1320Z" />
<glyph unicode="M" horiz-adv-x="1760" d="M1616 1320V0H1229V656L1245 928L1184 611L1029 128H650L496 611L435 928L451 656V0H64V1320H618L818 547L840 416L862 547L1062 1320H1616Z" />
<glyph unicode="N" horiz-adv-x="1508" d="M422 968L451 963V0H64V1320H587L1018 360L989 354V1320H1376V0H850L422 968Z" />
<glyph unicode="O" horiz-adv-x="1512" d="M442 661Q442 572 478 499T579 382T731 338Q819 338 884 381T985 498T1021 661Q1021 750 985 823T884 940T731 984Q644 984 579 940T478 823T442 661ZM38 661Q38 805 90 929T237 1147T457 1292T731 1344Q881 1344 1007
1292T1227 1147T1372 930T1424 661Q1424 516 1374 392T1232 174T1012 28T731 -24Q573 -24 446 28T227 173T87 391T38 661Z" />
<glyph unicode="P" horiz-adv-x="1154" d="M61 1320H614Q743 1320 847 1273T1012 1132T1074 904Q1074 769 1013 672T847 522T614 469H448V0H61V1320ZM448 770H506Q550 770 584 782T639 822T659 894Q659 938 639 965T585 1006T506 1019H448V770Z" />
<glyph unicode="Q" horiz-adv-x="1491" d="M1075 -22Q1131 -22 1178 -9T1256 20T1291 42L1413 -206Q1379 -269 1292 -321T1080 -374Q1003 -374 951 -356T853 -314T753 -272T616 -254Q554 -254 509 -270T438 -304T411 -325L262 -147Q322 -69 438 -18T701 34Q788
34 849 20T962 -8T1075 -22ZM442 661Q442 572 478 499T579 382T731 338Q819 338 884 381T985 498T1021 661Q1021 750 985 823T884 940T731 984Q644 984 579 940T478 823T442 661ZM38 661Q38 805 90 929T237 1147T457 1292T731 1344Q881 1344 1007 1292T1227 1147T1372
930T1424 661Q1424 516 1374 392T1232 174T1012 28T731 -24Q573 -24 446 28T227 173T87 391T38 661Z" />
<glyph unicode="R" horiz-adv-x="1234" d="M54 1320H646Q766 1320 858 1270T1002 1126T1054 904Q1054 777 1013 699T913 581T806 531L1122 0H688L416 501H442V0H54V1320ZM442 763H506Q559 763 607 788T656 891Q656 969 609 994T509 1019H442V763Z" />
<glyph unicode="S" horiz-adv-x="1163" d="M594 1344Q722 1344 821 1317T982 1258T1058 1216L875 906Q859 918 820 939T731 978T637 995Q584 995 549 981T514 931Q514 907 533 887T597 846T722 798Q799 773 863 736T973 648T1046 531T1072 382Q1072 272 1027 195T905
69T736 -1T546 -24Q399 -24 285 8T100 77T13 131L202 454Q213 445 249 425T337 383T444 346T546 330Q609 330 639 348T669 400Q669 424 651 445T585 489T450 544Q366 575 290 625T166 755T118 955Q118 1077 186 1164T363 1297T594 1344Z" />
<glyph unicode="T" horiz-adv-x="1042" d="M291 984H6V1320H963V984H678V0H291V984Z" />
<glyph unicode="U" horiz-adv-x="1294" d="M784 1320H1171V515Q1171 352 1108 231T923 43T621 -24Q442 -24 319 43T132 231T69 515V1320H456V536Q456 463 474 417T528 348T621 326Q676 326 712 348T766 416T784 536V1320Z" />
<glyph unicode="V" horiz-adv-x="1418" d="M893 0H461L0 1320H437L677 501L917 1320H1354L893 0Z" />
<glyph unicode="W" horiz-adv-x="1957" d="M1550 0H1091L907 782H974L789 0H328L10 1320H456L586 512H581L803 1320H1077L1299 512H1294L1424 1320H1870L1550 0Z" />
<glyph unicode="X" horiz-adv-x="1531" d="M970 710L1475 0H968L714 386L475 0H8L475 710L50 1320H544L730 1008L915 1320H1386L970 710Z" />
<glyph unicode="Y" horiz-adv-x="1266" d="M405 475L-58 1320H413L598 915L784 1320H1253L792 475V0H405V475Z" />
<glyph unicode="Z" horiz-adv-x="1318" d="M83 1320H1256L661 336H1213V0H-10L581 984H83V1320Z" />
<glyph unicode="[" horiz-adv-x="747" d="M75 -416V1376H648V1104H378V-144H648V-416H75Z" />
<glyph unicode="\" horiz-adv-x="1018" d="M978 0H675L16 1376H318L978 0Z" />
<glyph unicode="]" horiz-adv-x="747" d="M88 -416V-144H358V1104H88V1376H661V-416H88Z" />
<glyph unicode="^" horiz-adv-x="834" d="M832 968H510L405 1085L302 968H-21L317 1344H494L832 968Z" />
<glyph unicode="_" horiz-adv-x="861" d="M3 -222V-10H851V-222H3Z" />
<glyph unicode="`" horiz-adv-x="661" d="M461 917L54 1146L230 1368L570 1067L461 917Z" />
<glyph unicode="a" horiz-adv-x="1174" d="M690 0V115Q680 97 646 64T556 3T426 -24Q303 -24 215 37T79 198T32 410Q32 523 79 622T214 783T426 845Q496 845 548 826T634 779T686 725V821H1078V0H690ZM418 410Q418 376 435 346T482 298T552 280Q592 280 622 298T669
346T686 410Q686 444 669 474T622 522T552 541Q512 541 482 523T435 474T418 410Z" />
<glyph unicode="b" horiz-adv-x="1165" d="M64 0V1376H456V725Q467 751 502 778T594 825T720 845Q843 845 930 783T1064 622T1110 410Q1110 297 1064 198T931 38T720 -24Q667 -24 616 -6T522 43T453 115V0H64ZM725 410Q725 444 708 474T661 522T590 541Q550 541
520 523T473 474T456 410Q456 376 473 346T520 298T590 280Q630 280 660 298T708 346T725 410Z" />
<glyph unicode="c" horiz-adv-x="867" d="M555 280Q597 280 626 296T669 325L846 62Q826 46 786 26T688 -9T554 -24Q392 -24 279 32T106 186T46 411Q46 539 105 636T278 789T554 845Q627 845 686 831T788 798T850 763L669 499Q663 505 648 515T609 533T555 541Q516
541 486 522T439 474T422 411Q422 378 439 348T486 299T555 280Z" />
<glyph unicode="d" horiz-adv-x="1165" d="M414 -24Q291 -24 204 37T71 198T24 410Q24 523 70 622T204 783T414 845Q485 845 540 826T631 779T678 725V1376H1070V0H681V115Q655 75 613 44T519 -6T414 -24ZM544 280Q584 280 614 298T661 346T678 410Q678 444 661
474T614 522T544 541Q504 541 474 523T426 474T409 410Q409 376 426 346T473 298T544 280Z" />
<glyph unicode="e" horiz-adv-x="1027" d="M405 333Q410 309 430 293T483 267T557 258Q601 258 643 262T720 275T776 298L917 51Q898 39 855 22T733 -10T530 -24Q391 -24 278 23T99 168T32 419Q32 539 87 635T246 788T498 845Q641 845 745 797T906 650T963 395Q963
387 963 364T960 333H405ZM592 494Q591 527 580 549T549 581T504 592Q481 592 461 583T427 552T413 494H592Z" />
<glyph unicode="f" horiz-adv-x="742" d="M16 821H130V1027Q130 1143 186 1226T333 1355T522 1400Q645 1400 708 1368T790 1317L642 1032Q637 1040 621 1054T582 1069Q568 1069 555 1062T532 1039T523 995V821H706V501H523V0H130V501H16V821Z" />
<glyph unicode="g" horiz-adv-x="1174" d="M528 -440Q449 -440 360 -428T188 -380T45 -272L267 -34Q293 -62 327 -85T407 -123T509 -138Q560 -138 601 -125T666 -82T690 0V16H1078V-22Q1078 -160 1005 -253T808 -393T528 -440ZM690 0V115Q680 97 646 64T556 3T426
-24Q303 -24 215 37T79 198T32 410Q32 523 79 622T214 783T426 845Q496 845 548 826T634 779T686 725V821H1078V0H690ZM418 410Q418 376 435 346T482 298T552 280Q592 280 622 298T669 346T686 410Q686 444 669 474T622 522T552 541Q512 541 482 523T435 474T418
410Z" />
<glyph unicode="h" horiz-adv-x="1160" d="M715 845Q806 845 891 810T1032 697T1088 493V0H694V432Q694 496 667 533T586 571Q551 571 520 554T469 506T450 432V0H56V1376H450V718Q463 750 501 779T595 826T715 845Z" />
<glyph unicode="i" horiz-adv-x="568" d="M74 0V821H467V0H74ZM275 912Q187 912 126 974T64 1123Q64 1209 125 1272T275 1336Q333 1336 381 1307T458 1230T488 1123Q488 1037 426 975T275 912Z" />
<glyph unicode="j" horiz-adv-x="579" d="M109 -440Q3 -440 -64 -421T-168 -381L-54 -91Q-36 -104 -18 -109T16 -114Q31 -114 46 -107T70 -83T80 -40V821H474V-91Q474 -186 435 -265T316 -392T109 -440ZM278 912Q191 912 129 974T67 1123Q67 1181 95 1229T172
1306T278 1336Q336 1336 384 1307T462 1230T491 1123Q491 1037 429 975T278 912Z" />
<glyph unicode="k" horiz-adv-x="1138" d="M670 821H1107L744 429L1154 0H707L434 307V0H40V1376H434V563L670 821Z" />
<glyph unicode="l" horiz-adv-x="547" d="M458 0H64V1376H458V0Z" />
<glyph unicode="m" horiz-adv-x="1696" d="M1298 845Q1392 845 1467 808T1587 691T1632 485V0H1245V432Q1245 485 1227 528T1146 571Q1104 571 1078 551T1041 499T1029 432V0H670V432Q670 485 654 528T573 571Q531 571 505 551T466 499T454 432V0H64V821H454V710Q467
741 510 772T615 824T742 845Q814 845 862 830T944 784T1002 709Q1015 740 1058 771T1164 824T1298 845Z" />
<glyph unicode="n" horiz-adv-x="1152" d="M707 845Q798 845 883 810T1024 697T1080 493V0H686V432Q686 496 655 533T570 571Q535 571 506 554T459 506T442 432V0H48V821H442V718Q455 750 493 779T587 826T707 845Z" />
<glyph unicode="o" horiz-adv-x="1053" d="M514 -24Q374 -24 265 30T94 182T32 408Q32 536 94 634T265 789T514 845Q654 845 761 789T928 635T989 408Q989 280 929 183T761 31T514 -24ZM514 296Q547 296 570 309T605 349T618 410Q618 445 606 471T570 511T514
525Q481 525 458 511T421 471T408 410Q408 375 421 349T457 310T514 296Z" />
<glyph unicode="p" horiz-adv-x="1174" d="M453 -416H64V821H456V725Q474 751 512 778T606 825T733 845Q856 845 940 783T1067 622T1110 410Q1110 297 1063 198T928 38T717 -24Q636 -24 581 3T495 63T453 115V-416ZM725 410Q725 444 708 474T661 522T590 541Q550
541 520 523T473 474T456 410Q456 376 473 346T520 298T590 280Q630 280 660 298T708 346T725 410Z" />
<glyph unicode="q" horiz-adv-x="1174" d="M721 -416V115Q711 97 680 64T594 3T457 -24Q334 -24 246 37T111 198T64 410Q64 523 107 622T234 783T441 845Q512 845 568 826T662 779T718 725V821H1110V-416H721ZM584 280Q624 280 654 298T701 346T718 410Q718 444
701 474T654 522T584 541Q544 541 514 523T466 474T449 410Q449 376 466 346T513 298T584 280Z" />
<glyph unicode="r" horiz-adv-x="858" d="M421 0H27V821H421V704H416Q427 726 457 759T543 818T683 845Q739 845 790 827T866 790L715 472Q702 492 666 512T576 533Q518 533 484 510T436 452T421 384V0Z" />
<glyph unicode="s" horiz-adv-x="898" d="M480 845Q571 845 646 831T770 801T830 776L710 549Q692 561 641 582T528 603Q494 603 472 598T450 576Q450 560 477 550T562 530Q617 520 680 495T789 417T834 277Q834 181 792 122T682 31T537 -12T392 -24Q286 -24 211
-6T91 34T32 67L149 320Q175 300 233 273T352 246Q402 246 425 253T448 275Q448 286 437 294T402 309T339 323Q304 330 260 346T174 392T105 470T78 587Q78 676 136 733T286 817T480 845Z" />
<glyph unicode="t" horiz-adv-x="771" d="M0 821H125V1158H514V821H680V501H514V395Q514 359 522 329T568 299Q588 299 605 309T627 323L755 46Q747 39 704 22T594 -9T448 -24Q306 -24 216 53T125 288V501H0V821Z" />
<glyph unicode="u" horiz-adv-x="1146" d="M443 464Q443 388 467 342T560 296Q630 296 654 342T678 464V821H1066V426Q1066 286 1007 185T834 30T560 -24Q400 -24 288 30T116 185T56 426V821H443V464Z" />
<glyph unicode="v" horiz-adv-x="1165" d="M0 821H421L571 355L722 821H1141L802 0H341L0 821Z" />
<glyph unicode="w" horiz-adv-x="1554" d="M765 379L586 0H238L-67 821H350L469 419L646 805H885L1059 419L1179 821H1597L1293 0H946L765 379Z" />
<glyph unicode="x" horiz-adv-x="1142" d="M782 445L1126 0H693L547 202L400 0H0L344 413L34 821H470L573 661L685 821H1077L782 445Z" />
<glyph unicode="y" horiz-adv-x="1102" d="M534 336L718 821H1102L530 -416H138L330 0L-16 821H374L534 336Z" />
<glyph unicode="z" horiz-adv-x="938" d="M54 821H934L581 267H894V0H-19L334 555H54V821Z" />
<glyph unicode="{" horiz-adv-x="754" d="M78 595Q119 595 151 615T184 691V1086Q184 1153 212 1219T302 1331T467 1376H650V1096H573Q529 1096 507 1074T485 1003V651Q485 583 460 546T363 480Q437 452 461 412T485 309V-43Q485 -91 507 -113T573 -136H650V-416H467Q365
-416 303 -371T212 -259T184 -126V269Q184 324 152 344T78 365V595Z" />
<glyph unicode="|" horiz-adv-x="477" d="M410 -258H61V1424H410V-258Z" />
<glyph unicode="}" horiz-adv-x="754" d="M64 -416V-136H141Q185 -136 207 -114T229 -43V309Q229 371 253 411T351 480Q280 508 255 545T229 651V1003Q229 1051 207 1073T141 1096H64V1376H247Q350 1376 412 1331T502 1220T530 1086V691Q530 636 562 616T636 595V365Q595
365 563 345T530 269V-126Q530 -192 502 -259T412 -371T247 -416H64Z" />
<glyph unicode="~" horiz-adv-x="1150" d="M1054 704Q1024 654 974 600T861 508T734 470Q676 470 630 486T548 524T481 561T424 578Q396 578 369 564T318 528T280 488L72 626Q103 676 153 730T265 821T392 859Q452 859 498 843T579 806T644 768T701 752Q729 752
756 766T807 802T845 843L1054 704Z" />
<glyph unicode="&#xa0;" horiz-adv-x="552" />
<glyph unicode="&#xa1;" horiz-adv-x="598" d="M93 -54L171 847H435L512 -54H93ZM302 916Q214 916 151 979T88 1132Q88 1191 117 1239T195 1317T302 1346Q392 1346 455 1284T518 1132Q518 1043 455 980T302 916Z" />
<glyph unicode="&#xa2;" horiz-adv-x="867" d="M400 1018H614V790H400V1018ZM400 21H614V-206H400V21ZM555 280Q597 280 626 296T669 325L846 62Q826 46 786 26T688 -9T554 -24Q392 -24 279 32T106 186T46 411Q46 539 105 636T278 789T554 845Q627 845 686 831T788
798T850 763L669 499Q663 505 648 515T609 533T555 541Q516 541 486 522T439 474T422 411Q422 378 439 348T486 299T555 280Z" />
<glyph unicode="&#xa3;" horiz-adv-x="1238" d="M238 650Q224 674 210 703T184 766T165 839T158 925Q158 1045 212 1140T370 1291T622 1346Q770 1346 866 1294T1014 1166T1075 1021L758 864Q758 903 746 944T708 1013T638 1042Q584 1042 560 1005T536 909Q536
876 543 839T562 766T584 700T605 650Q639 573 650 513T662 402Q662 365 651 330T635 286Q642 286 654 283T683 275T723 268T771 264Q801 264 819 281T846 317T856 338L1165 227Q1152 173 1110 115T996 16T824 -24Q749 -24 692 -15T586 7T489 28T384 38Q368 38
355 32T331 17T315 0H46Q46 92 83 161T182 268T320 306Q334 326 339 343T344 389Q344 430 314 502T238 650ZM72 662H840V450H72V662Z" />
<glyph unicode="&#xa4;" horiz-adv-x="1085" d="M904 1072L1056 922L894 760L744 912L904 1072ZM200 368L350 216L190 56L38 206L200 368ZM190 1072L350 912L200 760L38 922L190 1072ZM894 368L1056 206L904 56L744 216L894 368ZM546 136Q406 136 297 190T126
342T64 568Q64 696 126 794T297 949T546 1005Q686 1005 793 949T960 795T1021 568Q1021 440 961 343T793 191T546 136ZM546 456Q579 456 602 469T637 509T650 570Q650 605 638 631T602 671T546 685Q513 685 490 671T453 631T440 570Q440 535 453 509T489 470T546
456Z" />
<glyph unicode="&#xa5;" horiz-adv-x="1266" d="M83 739H1115V509H83V739ZM83 395H1115V165H83V395ZM405 475L-58 1320H413L598 915L784 1320H1253L792 475V0H405V475Z" />
<glyph unicode="&#xa6;" horiz-adv-x="477" d="M386 845H69V1376H386V845ZM386 0H69V531H386V0Z" />
<glyph unicode="&#xa7;" horiz-adv-x="1064" d="M470 -440Q326 -440 231 -390T85 -266T22 -125L365 -38Q370 -58 382 -79T417 -116T470 -131Q490 -131 503 -128T524 -116T531 -93Q531 -79 512 -62T443 -22T304 32Q152 84 81 173T10 390Q10 463 50 528T147 640T254
704Q206 739 171 783T116 881T96 995Q96 1090 148 1169T300 1296T539 1344Q671 1344 759 1295T895 1175T954 1037L619 966Q615 981 604 997T578 1024T542 1035Q516 1035 504 1025T491 1000Q491 989 500 974T551 937T688 880Q789 845 864 793T982 670T1024 507Q1024
434 995 376T913 273T784 195Q862 149 900 79T938 -90Q938 -169 905 -233T810 -344T662 -415T470 -440ZM450 579Q422 571 403 555T373 516T362 470Q362 425 411 395T520 339Q524 338 538 331T560 318Q597 327 622 340T659 374T672 422Q672 445 648 467T586 512T509
552Q509 552 495 559T465 572T450 579Z" />
<glyph unicode="&#xa8;" horiz-adv-x="938" d="M662 944Q589 944 539 995T488 1118Q488 1190 538 1241T662 1293Q734 1293 784 1242T835 1118Q835 1046 785 995T662 944ZM251 944Q178 944 128 995T77 1118Q77 1190 127 1241T251 1293Q323 1293 373 1242T424 1118Q424
1046 374 995T251 944Z" />
<glyph unicode="&#xa9;" horiz-adv-x="1482" d="M45 659Q45 801 98 925T245 1143T463 1290T728 1344Q870 1344 994 1291T1212 1143T1359 925T1413 659Q1413 518 1360 395T1212 177T994 29T728 -24Q587 -24 464 29T246 176T98 394T45 659ZM266 659Q266 564 302
480T401 333T549 233T728 197Q824 197 908 233T1056 332T1156 480T1192 659Q1192 755 1156 839T1056 987T908 1087T728 1123Q633 1123 549 1087T402 987T302 839T266 659ZM787 787Q809 787 838 779T867 771L949 941Q945 945 893 971T739 997Q649 997 569 952T440
830T390 659Q390 567 439 492T569 373T739 328Q800 328 847 341T922 368T949 381L864 554Q860 550 839 542T787 534Q737 534 706 574T674 662Q674 708 705 747T787 787Z" />
<glyph unicode="&#xaa;" horiz-adv-x="859" d="M104 1074Q104 1143 135 1204T222 1305T355 1344Q399 1344 438 1333T520 1290V1328H733V821H522V872H520Q496 850 470 835T416 813T355 806Q279 806 223 844T135 944T104 1074ZM336 1074Q336 1038 361 1011T432 984Q473
984 498 1009T523 1074Q523 1113 497 1139T432 1165Q390 1165 363 1138T336 1074Z" />
<glyph unicode="&#xab;" horiz-adv-x="1040" d="M541 176L354 29L29 445L354 862L541 714L334 445L541 176ZM954 176L766 29L442 445L766 862L954 714L747 445L954 176Z" />
<glyph unicode="&#xac;" horiz-adv-x="1120" d="M970 621V88H637V288H104V621H970Z" />
<glyph unicode="&#xad;" horiz-adv-x="747" d="M104 288V621H619V288H104Z" />
<glyph unicode="&#xae;" horiz-adv-x="830" d="M45 984Q45 1083 93 1164T223 1295T402 1344Q502 1344 583 1295T713 1165T762 984Q762 886 714 805T584 675T402 627Q304 627 223 675T94 804T45 984ZM162 984Q162 918 194 864T281 777T402 744Q470 744 525 776T612
863T645 985Q645 1051 613 1106T525 1194T402 1227Q336 1227 282 1194T195 1106T162 984ZM286 1152H410Q457 1152 487 1127T518 1054Q518 1016 498 993T448 958L579 821H466L355 952H371V821H286V1152ZM371 1011H365Q382 1011 404 1013T426 1046Q426 1078 404 1082T366
1086H371V1011Z" />
<glyph unicode="&#xaf;" horiz-adv-x="917" d="M99 992V1229H795V992H99Z" />
<glyph unicode="&#xb0;" horiz-adv-x="635" d="M99 1235Q99 1315 159 1364T306 1414Q391 1414 450 1365T510 1235Q510 1157 453 1107T306 1056Q215 1056 157 1106T99 1235ZM242 1235Q242 1207 259 1186T306 1165Q333 1165 351 1186T370 1235Q370 1265 351 1284T306
1304Q279 1304 261 1285T242 1235Z" />
<glyph unicode="&#xb1;" horiz-adv-x="1053" d="M357 389V642H104V957H357V1210H674V957H925V642H674V389H357ZM89 26V342H947V26H89Z" />
<glyph unicode="&#xb2;" horiz-adv-x="493" d="M249 1218Q228 1218 212 1206T184 1179T166 1150T159 1134L31 1194Q32 1199 38 1216T60 1254T99 1296T161 1330T249 1344Q312 1344 352 1326T413 1280T443 1223T452 1171Q452 1137 440 1108T409 1054T368 1010T327
978T295 958T281 951H448V821H56V939Q57 940 75 951T122 982T180 1026T238 1076T283 1127T301 1173Q301 1197 288 1207T249 1218Z" />
<glyph unicode="&#xb3;" horiz-adv-x="445" d="M25 1215Q30 1236 44 1258T83 1300T142 1332T220 1345Q270 1345 311 1327T377 1274T402 1192Q402 1168 394 1148T374 1113T348 1095Q365 1091 382 1076T412 1036T425 977Q425 925 398 885T324 821T218 798Q154 798
110 821T41 877T7 941L149 1010Q153 993 162 975T185 944T218 931Q234 931 246 937T265 954T272 982Q272 998 265 1008T246 1024T218 1030H207V1138H221Q234 1138 244 1143T259 1158T264 1180Q264 1198 252 1210T219 1222Q204 1222 192 1216T171 1200T156 1179T148
1156L25 1215Z" />
<glyph unicode="&#xb4;" horiz-adv-x="946" d="M318 917L210 1067L549 1368L725 1146L318 917Z" />
<glyph unicode="&#xb5;" horiz-adv-x="1146" d="M56 821H443V-392H56V821ZM443 464Q443 388 467 342T560 296Q630 296 654 342T678 464V821H1066V426Q1066 286 1007 185T834 30T560 -24Q400 -24 288 30T116 185T56 426V821H443V464Z" />
<glyph unicode="&#xb6;" horiz-adv-x="1173" d="M1104 0H901V1118H813V0H608V432H419Q325 432 246 467T109 564T18 708T-14 885Q-14 1012 42 1110T196 1264T419 1320H1104V0Z" />
<glyph unicode="&#xb7;" horiz-adv-x="598" d="M302 218Q214 218 151 281T88 432Q88 521 151 584T302 647Q391 647 454 584T517 432Q517 344 454 281T302 218Z" />
<glyph unicode="&#xb8;" horiz-adv-x="754" d="M392 -438Q283 -438 212 -405T115 -341L237 -206Q255 -228 288 -251T358 -274Q385 -274 399 -260T414 -224Q414 -192 387 -177T326 -162Q295 -162 277 -166T253 -176L248 -168L325 42L450 3L421 -61Q483 -61 531
-82T606 -142T634 -230Q634 -294 602 -340T515 -412T392 -438Z" />
<glyph unicode="&#xb9;" horiz-adv-x="264" d="M80 1134L5 1097V1235L161 1321H226V821H80V1134Z" />
<glyph unicode="&#xba;" horiz-adv-x="874" d="M106 1074Q106 1153 147 1214T262 1309T427 1344Q519 1344 590 1310T703 1214T744 1074Q744 996 704 936T593 841T427 806Q328 806 256 840T145 935T106 1074ZM334 1074Q334 1037 357 1012T426 987Q469 987 493 1012T517
1074Q517 1100 506 1119T474 1150T426 1162Q399 1162 378 1151T346 1120T334 1074Z" />
<glyph unicode="&#xbb;" horiz-adv-x="1040" d="M676 29L489 176L696 445L489 714L676 862L1001 445L676 29ZM264 29L76 176L283 445L76 714L264 862L588 445L264 29Z" />
<glyph unicode="&#xbc;" horiz-adv-x="1442" d="M206 1034L91 978V1191L333 1324H433V550H206V1034ZM1292 770V358H1382V162H1292V0H1067V162H754V339L1028 770H1292ZM1067 358V496H1065L978 358H1067ZM979 1320H1211L443 0H211L979 1320Z" />
<glyph unicode="&#xbd;" horiz-adv-x="1552" d="M1182 592Q1150 592 1125 575T1083 533T1057 490T1046 467L854 556Q855 564 865 589T897 647T956 711T1049 762T1182 782Q1277 782 1337 755T1429 685T1474 599T1487 521Q1487 470 1469 426T1422 345T1361 280T1299
232T1251 202T1229 191H1480V-5H891V173Q893 174 920 191T990 238T1078 304T1166 379T1233 455T1260 525Q1260 561 1240 576T1182 592ZM178 1034L63 978V1191L305 1324H405V550H178V1034ZM958 1320H1190L422 0H190L958 1320Z" />
<glyph unicode="&#xbe;" horiz-adv-x="1554" d="M77 1156Q85 1186 106 1219T162 1280T247 1327T362 1345Q435 1345 495 1319T591 1242T627 1123Q627 1088 616 1058T586 1008T548 980Q573 975 599 953T642 894T660 809Q660 732 621 673T513 581T359 548Q266 548
202 581T100 663T51 756L258 857Q263 832 276 805T310 760T359 741Q383 741 401 750T428 776T438 817Q438 839 428 855T399 879T359 887H343V1044H363Q382 1044 396 1051T419 1073T427 1106Q427 1131 409 1149T360 1167Q338 1167 321 1158T290 1135T269 1103T257
1070L77 1156ZM1369 770V358H1459V162H1369V0H1144V162H831V339L1105 770H1369ZM1144 358V496H1142L1055 358H1144ZM1082 1320H1314L546 0H314L1082 1320Z" />
<glyph unicode="&#xbf;" horiz-adv-x="994" d="M494 -27Q366 -27 263 12T98 126T37 304Q37 393 80 456T177 559T267 619Q321 649 342 691T363 795V842H699V695Q699 625 665 575T574 496Q543 480 517 461T474 419T458 367Q458 328 479 312T546 295Q584 295 609
315T650 365T675 421L994 296Q992 284 976 248T924 166T831 75T690 2T494 -27ZM525 911Q435 911 371 974T307 1127Q307 1216 371 1278T525 1341Q613 1341 676 1279T739 1127Q739 1037 676 974T525 911Z" />
<glyph unicode="&#xc0;" horiz-adv-x="1451" d="M512 1320H891L1435 0H1022L938 229H467L382 0H-32L512 1320ZM597 565H808L704 856H701L597 565ZM770 1376L363 1605L539 1827L879 1526L770 1376Z" />
<glyph unicode="&#xc1;" horiz-adv-x="1451" d="M512 1320H891L1435 0H1022L938 229H467L382 0H-32L512 1320ZM597 565H808L704 856H701L597 565ZM613 1376L504 1526L844 1827L1020 1605L613 1376Z" />
<glyph unicode="&#xc2;" horiz-adv-x="1451" d="M512 1320H891L1435 0H1022L938 229H467L382 0H-32L512 1320ZM597 565H808L704 856H701L597 565ZM443 1393L312 1567L702 1852L1091 1567L960 1393L702 1582L443 1393Z" />
<glyph unicode="&#xc3;" horiz-adv-x="1451" d="M512 1320H891L1435 0H1022L938 229H467L382 0H-32L512 1320ZM597 565H808L704 856H701L597 565ZM306 1407Q315 1475 344 1548T422 1673T543 1724Q607 1724 659 1706T756 1670T846 1652Q870 1652 887 1677T911 1724H1097Q1088
1656 1060 1583T982 1458T862 1407Q798 1407 747 1425T649 1461T554 1479Q530 1479 514 1455T492 1407H306Z" />
<glyph unicode="&#xc4;" horiz-adv-x="1451" d="M512 1320H891L1435 0H1022L938 229H467L382 0H-32L512 1320ZM597 565H808L704 856H701L597 565ZM908 1393Q835 1393 785 1444T734 1567Q734 1639 784 1690T908 1742Q980 1742 1030 1691T1081 1567Q1081 1495 1031
1444T908 1393ZM497 1393Q424 1393 374 1444T323 1567Q323 1639 373 1690T497 1742Q569 1742 619 1691T670 1567Q670 1495 620 1444T497 1393Z" />
<glyph unicode="&#xc5;" horiz-adv-x="1451" d="M512 1320H891L1435 0H1022L938 229H467L382 0H-32L512 1320ZM597 565H808L704 856H701L597 565ZM703 1351Q590 1351 521 1413T451 1574Q451 1671 524 1733T703 1795Q809 1795 881 1733T953 1574Q953 1476 883 1414T703
1351ZM703 1500Q731 1500 750 1520T770 1574Q770 1606 750 1624T703 1643Q674 1643 654 1625T634 1574Q634 1540 653 1520T703 1500Z" />
<glyph unicode="&#xc6;" horiz-adv-x="1763" d="M664 1320H1064L978 229H501L387 0H-34L664 1320ZM645 517H802V802H798L645 517ZM781 1320H1667V984H1168V824H1667V499H1168V336H1667V0H781V1320Z" />
<glyph unicode="&#xc7;" horiz-adv-x="1306" d="M803 360Q873 360 938 382T1040 426L1205 98Q1157 58 1042 17T771 -24Q625 -24 495 26T265 169T107 385T50 658Q50 806 107 931T264 1149T494 1293T771 1344Q927 1344 1042 1303T1205 1222L1040 894Q1004 916 939
938T803 960Q708 960 644 933T542 862T487 765T470 661Q470 609 486 556T541 459T644 387T803 360ZM788 -438Q679 -438 608 -405T511 -341L633 -206Q651 -228 684 -251T754 -274Q781 -274 795 -260T810 -224Q810 -192 783 -177T722 -162Q691 -162 673 -166T649
-176L644 -168L721 42L846 3L817 -61Q879 -61 927 -82T1002 -142T1030 -230Q1030 -294 998 -340T911 -412T788 -438Z" />
<glyph unicode="&#xc8;" horiz-adv-x="1082" d="M64 1320H950V984H451V824H950V499H451V336H950V0H64V1320ZM540 1376L133 1605L309 1827L649 1526L540 1376Z" />
<glyph unicode="&#xc9;" horiz-adv-x="1082" d="M64 1320H950V984H451V824H950V499H451V336H950V0H64V1320ZM383 1376L274 1526L614 1827L790 1605L383 1376Z" />
<glyph unicode="&#xca;" horiz-adv-x="1082" d="M64 1320H950V984H451V824H950V499H451V336H950V0H64V1320ZM213 1393L82 1567L472 1852L861 1567L730 1393L472 1582L213 1393Z" />
<glyph unicode="&#xcb;" horiz-adv-x="1082" d="M64 1320H950V984H451V824H950V499H451V336H950V0H64V1320ZM678 1393Q605 1393 555 1444T504 1567Q504 1639 554 1690T678 1742Q750 1742 800 1691T851 1567Q851 1495 801 1444T678 1393ZM267 1393Q194 1393 144
1444T93 1567Q93 1639 143 1690T267 1742Q339 1742 389 1691T440 1567Q440 1495 390 1444T267 1393Z" />
<glyph unicode="&#xcc;" horiz-adv-x="592" d="M72 1320H459V0H72V1320ZM590 1376L183 1605L359 1827L699 1526L590 1376Z" />
<glyph unicode="&#xcd;" horiz-adv-x="592" d="M72 1320H459V0H72V1320ZM433 1376L324 1526L664 1827L840 1605L433 1376Z" />
<glyph unicode="&#xce;" horiz-adv-x="592" d="M72 1320H459V0H72V1320ZM263 1393L132 1567L522 1852L911 1567L780 1393L522 1582L263 1393Z" />
<glyph unicode="&#xcf;" horiz-adv-x="592" d="M72 1320H459V0H72V1320ZM472 1393Q399 1393 349 1444T298 1567Q298 1639 348 1690T472 1742Q544 1742 594 1691T645 1567Q645 1495 595 1444T472 1393ZM61 1393Q-12 1393 -62 1444T-113 1567Q-113 1639 -63 1690T61
1742Q133 1742 183 1691T234 1567Q234 1495 184 1444T61 1393Z" />
<glyph unicode="&#xd0;" horiz-adv-x="1243" d="M72 0V1320H528Q739 1320 879 1236T1091 1002T1162 661Q1162 468 1091 319T880 85T528 0H72ZM-20 490V823H597V490H-20ZM459 341H493Q576 341 633 383T720 497T750 659Q750 749 721 821T634 936T493 979H459V341Z" />
<glyph unicode="&#xd1;" horiz-adv-x="1508" d="M422 968L451 963V0H64V1320H587L1018 360L989 354V1320H1376V0H850L422 968ZM340 1462Q349 1530 378 1603T456 1728T577 1779Q641 1779 693 1761T790 1725T880 1707Q904 1707 921 1732T945 1779H1131Q1122 1711
1094 1638T1016 1513T896 1462Q832 1462 781 1480T683 1516T588 1534Q564 1534 548 1510T526 1462H340Z" />
<glyph unicode="&#xd2;" horiz-adv-x="1512" d="M442 661Q442 572 478 499T579 382T731 338Q819 338 884 381T985 498T1021 661Q1021 750 985 823T884 940T731 984Q644 984 579 940T478 823T442 661ZM38 661Q38 805 90 929T237 1147T457 1292T731 1344Q881 1344
1007 1292T1227 1147T1372 930T1424 661Q1424 516 1374 392T1232 174T1012 28T731 -24Q573 -24 446 28T227 173T87 391T38 661ZM799 1376L392 1605L568 1827L908 1526L799 1376Z" />
<glyph unicode="&#xd3;" horiz-adv-x="1512" d="M442 661Q442 572 478 499T579 382T731 338Q819 338 884 381T985 498T1021 661Q1021 750 985 823T884 940T731 984Q644 984 579 940T478 823T442 661ZM38 661Q38 805 90 929T237 1147T457 1292T731 1344Q881 1344
1007 1292T1227 1147T1372 930T1424 661Q1424 516 1374 392T1232 174T1012 28T731 -24Q573 -24 446 28T227 173T87 391T38 661ZM642 1376L533 1526L873 1827L1049 1605L642 1376Z" />
<glyph unicode="&#xd4;" horiz-adv-x="1512" d="M442 661Q442 572 478 499T579 382T731 338Q819 338 884 381T985 498T1021 661Q1021 750 985 823T884 940T731 984Q644 984 579 940T478 823T442 661ZM38 661Q38 805 90 929T237 1147T457 1292T731 1344Q881 1344
1007 1292T1227 1147T1372 930T1424 661Q1424 516 1374 392T1232 174T1012 28T731 -24Q573 -24 446 28T227 173T87 391T38 661ZM472 1393L341 1567L731 1852L1120 1567L989 1393L731 1582L472 1393Z" />
<glyph unicode="&#xd5;" horiz-adv-x="1512" d="M442 661Q442 572 478 499T579 382T731 338Q819 338 884 381T985 498T1021 661Q1021 750 985 823T884 940T731 984Q644 984 579 940T478 823T442 661ZM38 661Q38 805 90 929T237 1147T457 1292T731 1344Q881 1344
1007 1292T1227 1147T1372 930T1424 661Q1424 516 1374 392T1232 174T1012 28T731 -24Q573 -24 446 28T227 173T87 391T38 661ZM351 1462Q360 1530 389 1603T467 1728T588 1779Q652 1779 704 1761T801 1725T891 1707Q915 1707 932 1732T956 1779H1142Q1133 1711
1105 1638T1027 1513T907 1462Q843 1462 792 1480T694 1516T599 1534Q575 1534 559 1510T537 1462H351Z" />
<glyph unicode="&#xd6;" horiz-adv-x="1512" d="M442 661Q442 572 478 499T579 382T731 338Q819 338 884 381T985 498T1021 661Q1021 750 985 823T884 940T731 984Q644 984 579 940T478 823T442 661ZM38 661Q38 805 90 929T237 1147T457 1292T731 1344Q881 1344
1007 1292T1227 1147T1372 930T1424 661Q1424 516 1374 392T1232 174T1012 28T731 -24Q573 -24 446 28T227 173T87 391T38 661ZM937 1393Q864 1393 814 1444T763 1567Q763 1639 813 1690T937 1742Q1009 1742 1059 1691T1110 1567Q1110 1495 1060 1444T937 1393ZM526
1393Q453 1393 403 1444T352 1567Q352 1639 402 1690T526 1742Q598 1742 648 1691T699 1567Q699 1495 649 1444T526 1393Z" />
<glyph unicode="&#xd7;" horiz-adv-x="1053" d="M738 662L955 446L734 224L515 442L298 224L75 450L290 664L75 882L298 1102L514 888L731 1102L955 880L738 662Z" />
<glyph unicode="&#xd8;" horiz-adv-x="1491" d="M1301 1397L1429 1283L118 -85L-10 29L1301 1397ZM442 661Q442 572 478 499T579 382T731 338Q819 338 884 381T985 498T1021 661Q1021 750 985 823T884 940T731 984Q644 984 579 940T478 823T442 661ZM38 661Q38
805 90 929T237 1147T457 1292T731 1344Q881 1344 1007 1292T1227 1147T1372 930T1424 661Q1424 516 1374 392T1232 174T1012 28T731 -24Q573 -24 446 28T227 173T87 391T38 661Z" />
<glyph unicode="&#xd9;" horiz-adv-x="1294" d="M784 1320H1171V515Q1171 352 1108 231T923 43T621 -24Q442 -24 319 43T132 231T69 515V1320H456V536Q456 463 474 417T528 348T621 326Q676 326 712 348T766 416T784 536V1320ZM689 1376L282 1605L458 1827L798
1526L689 1376Z" />
<glyph unicode="&#xda;" horiz-adv-x="1294" d="M784 1320H1171V515Q1171 352 1108 231T923 43T621 -24Q442 -24 319 43T132 231T69 515V1320H456V536Q456 463 474 417T528 348T621 326Q676 326 712 348T766 416T784 536V1320ZM532 1376L423 1526L763 1827L939
1605L532 1376Z" />
<glyph unicode="&#xdb;" horiz-adv-x="1294" d="M784 1320H1171V515Q1171 352 1108 231T923 43T621 -24Q442 -24 319 43T132 231T69 515V1320H456V536Q456 463 474 417T528 348T621 326Q676 326 712 348T766 416T784 536V1320ZM362 1393L231 1567L621 1852L1010
1567L879 1393L621 1582L362 1393Z" />
<glyph unicode="&#xdc;" horiz-adv-x="1294" d="M784 1320H1171V515Q1171 352 1108 231T923 43T621 -24Q442 -24 319 43T132 231T69 515V1320H456V536Q456 463 474 417T528 348T621 326Q676 326 712 348T766 416T784 536V1320ZM827 1393Q754 1393 704 1444T653
1567Q653 1639 703 1690T827 1742Q899 1742 949 1691T1000 1567Q1000 1495 950 1444T827 1393ZM416 1393Q343 1393 293 1444T242 1567Q242 1639 292 1690T416 1742Q488 1742 538 1691T589 1567Q589 1495 539 1444T416 1393Z" />
<glyph unicode="&#xdd;" horiz-adv-x="1266" d="M405 475L-58 1320H413L598 915L784 1320H1253L792 475V0H405V475ZM509 1376L400 1526L740 1827L916 1605L509 1376Z" />
<glyph unicode="&#xde;" horiz-adv-x="1154" d="M64 1320H451V1075H610Q739 1075 845 1031T1014 896T1077 669Q1077 533 1014 439T845 295T610 245H451V0H64V1320ZM451 546H528Q582 546 616 575T651 662Q651 720 617 747T528 774H451V546Z" />
<glyph unicode="&#xdf;" horiz-adv-x="1202" d="M600 302Q634 302 665 318T717 367T738 453Q738 530 699 565T600 600V867Q638 867 680 896T722 984Q722 1019 710 1044T672 1084T605 1098Q567 1098 538 1078T494 1022T478 934V0H117V896Q117 1060 178 1172T348
1342T598 1400Q812 1400 935 1298T1059 1006Q1059 947 1041 896T987 806T904 741Q967 721 1016 680T1094 575T1122 422Q1122 296 1051 195T862 35T600 -24V302Z" />
<glyph unicode="&#xe0;" horiz-adv-x="1174" d="M690 0V115Q680 97 646 64T556 3T426 -24Q303 -24 215 37T79 198T32 410Q32 523 79 622T214 783T426 845Q496 845 548 826T634 779T686 725V821H1078V0H690ZM418 410Q418 376 435 346T482 298T552 280Q592 280 622
298T669 346T686 410Q686 444 669 474T622 522T552 541Q512 541 482 523T435 474T418 410ZM735 917L328 1146L504 1368L844 1067L735 917Z" />
<glyph unicode="&#xe1;" horiz-adv-x="1174" d="M690 0V115Q680 97 646 64T556 3T426 -24Q303 -24 215 37T79 198T32 410Q32 523 79 622T214 783T426 845Q496 845 548 826T634 779T686 725V821H1078V0H690ZM418 410Q418 376 435 346T482 298T552 280Q592 280 622
298T669 346T686 410Q686 444 669 474T622 522T552 541Q512 541 482 523T435 474T418 410ZM437 897L329 1047L668 1348L844 1126L437 897Z" />
<glyph unicode="&#xe2;" horiz-adv-x="1174" d="M690 0V115Q680 97 646 64T556 3T426 -24Q303 -24 215 37T79 198T32 410Q32 523 79 622T214 783T426 845Q496 845 548 826T634 779T686 725V821H1078V0H690ZM418 410Q418 376 435 346T482 298T552 280Q592 280 622
298T669 346T686 410Q686 444 669 474T622 522T552 541Q512 541 482 523T435 474T418 410ZM829 1128L571 1317L312 1128L181 1302L571 1587L960 1302L829 1128Z" />
<glyph unicode="&#xe3;" horiz-adv-x="1174" d="M690 0V115Q680 97 646 64T556 3T426 -24Q303 -24 215 37T79 198T32 410Q32 523 79 622T214 783T426 845Q496 845 548 826T634 779T686 725V821H1078V0H690ZM418 410Q418 376 435 346T482 298T552 280Q592 280 622
298T669 346T686 410Q686 444 669 474T622 522T552 541Q512 541 482 523T435 474T418 410ZM190 963Q199 1031 228 1104T306 1229T427 1280Q491 1280 543 1262T640 1226T730 1208Q754 1208 771 1233T795 1280H981Q972 1212 944 1139T866 1014T746 963Q682 963 631
981T533 1017T438 1035Q414 1035 398 1011T376 963H190Z" />
<glyph unicode="&#xe4;" horiz-adv-x="1174" d="M690 0V115Q680 97 646 64T556 3T426 -24Q303 -24 215 37T79 198T32 410Q32 523 79 622T214 783T426 845Q496 845 548 826T634 779T686 725V821H1078V0H690ZM418 410Q418 376 435 346T482 298T552 280Q592 280 622
298T669 346T686 410Q686 444 669 474T622 522T552 541Q512 541 482 523T435 474T418 410ZM790 944Q717 944 667 995T616 1118Q616 1190 666 1241T790 1293Q862 1293 912 1242T963 1118Q963 1046 913 995T790 944ZM379 944Q306 944 256 995T205 1118Q205 1190 255
1241T379 1293Q451 1293 501 1242T552 1118Q552 1046 502 995T379 944Z" />
<glyph unicode="&#xe5;" horiz-adv-x="1174" d="M690 0V115Q680 97 646 64T556 3T426 -24Q303 -24 215 37T79 198T32 410Q32 523 79 622T214 783T426 845Q496 845 548 826T634 779T686 725V821H1078V0H690ZM418 410Q418 376 435 346T482 298T552 280Q592 280 622
298T669 346T686 410Q686 444 669 474T622 522T552 541Q512 541 482 523T435 474T418 410ZM570 914Q439 914 358 986T277 1173Q277 1248 316 1306T421 1397T570 1430Q652 1430 718 1397T822 1306T861 1173Q861 1059 779 987T570 914ZM570 1088Q602 1088 625 1111T648
1173Q648 1210 625 1232T570 1254Q536 1254 513 1232T490 1173Q490 1133 512 1111T570 1088Z" />
<glyph unicode="&#xe6;" horiz-adv-x="1637" d="M384 -24Q292 -24 222 10T112 108T72 258Q72 326 115 384T236 478T416 514Q479 514 519 505T583 485T618 466V478Q618 490 609 507T579 540T518 568T419 579Q339 579 276 563T184 533L32 774Q76 797 186 821T451
845Q527 845 595 830T713 787T786 723Q821 754 870 781T980 827T1112 845Q1244 845 1348 800T1512 658T1573 410Q1573 401 1572 386T1571 363H982Q982 319 1016 296T1087 264T1133 256Q1167 256 1205 263T1279 284T1341 323L1544 102Q1493 62 1430 34T1288 -9T1112
-24Q1042 -24 978 -5T859 48T765 126Q744 94 694 59T566 0T384 -24ZM466 190Q485 190 501 199T526 225T536 261Q536 290 516 310T466 331Q447 331 431 322T405 296T395 261Q395 232 416 211T466 190ZM990 550H1232Q1228 561 1221 573T1200 597T1168 616T1122 624Q1074
624 1035 601T990 550Z" />
<glyph unicode="&#xe7;" horiz-adv-x="819" d="M555 280Q597 280 626 296T669 325L846 62Q826 46 786 26T688 -9T554 -24Q392 -24 279 32T106 186T46 411Q46 539 105 636T278 789T554 845Q627 845 686 831T788 798T850 763L669 499Q663 505 648 515T609 533T555
541Q516 541 486 522T439 474T422 411Q422 378 439 348T486 299T555 280ZM426 -438Q317 -438 246 -405T149 -341L271 -206Q289 -228 322 -251T392 -274Q419 -274 433 -260T448 -224Q448 -192 421 -177T360 -162Q329 -162 311 -166T287 -176L282 -168L359 42L484
3L455 -61Q517 -61 565 -82T640 -142T668 -230Q668 -294 636 -340T549 -412T426 -438Z" />
<glyph unicode="&#xe8;" horiz-adv-x="1027" d="M405 333Q410 309 430 293T483 267T557 258Q601 258 643 262T720 275T776 298L917 51Q898 39 855 22T733 -10T530 -24Q391 -24 278 23T99 168T32 419Q32 539 87 635T246 788T498 845Q641 845 745 797T906 650T963
395Q963 387 963 364T960 333H405ZM592 494Q591 527 580 549T549 581T504 592Q481 592 461 583T427 552T413 494H592ZM677 917L270 1146L446 1368L786 1067L677 917Z" />
<glyph unicode="&#xe9;" horiz-adv-x="1027" d="M405 333Q410 309 430 293T483 267T557 258Q601 258 643 262T720 275T776 298L917 51Q898 39 855 22T733 -10T530 -24Q391 -24 278 23T99 168T32 419Q32 539 87 635T246 788T498 845Q641 845 745 797T906 650T963
395Q963 387 963 364T960 333H405ZM592 494Q591 527 580 549T549 581T504 592Q481 592 461 583T427 552T413 494H592ZM379 897L271 1047L610 1348L786 1126L379 897Z" />
<glyph unicode="&#xea;" horiz-adv-x="1027" d="M405 333Q410 309 430 293T483 267T557 258Q601 258 643 262T720 275T776 298L917 51Q898 39 855 22T733 -10T530 -24Q391 -24 278 23T99 168T32 419Q32 539 87 635T246 788T498 845Q641 845 745 797T906 650T963
395Q963 387 963 364T960 333H405ZM592 494Q591 527 580 549T549 581T504 592Q481 592 461 583T427 552T413 494H592ZM771 1128L513 1317L254 1128L123 1302L513 1587L902 1302L771 1128Z" />
<glyph unicode="&#xeb;" horiz-adv-x="1027" d="M405 333Q410 309 430 293T483 267T557 258Q601 258 643 262T720 275T776 298L917 51Q898 39 855 22T733 -10T530 -24Q391 -24 278 23T99 168T32 419Q32 539 87 635T246 788T498 845Q641 845 745 797T906 650T963
395Q963 387 963 364T960 333H405ZM592 494Q591 527 580 549T549 581T504 592Q481 592 461 583T427 552T413 494H592ZM732 944Q659 944 609 995T558 1118Q558 1190 608 1241T732 1293Q804 1293 854 1242T905 1118Q905 1046 855 995T732 944ZM321 944Q248 944 198
995T147 1118Q147 1190 197 1241T321 1293Q393 1293 443 1242T494 1118Q494 1046 444 995T321 944Z" />
<glyph unicode="&#xec;" horiz-adv-x="470" d="M42 0V821H405V0H42ZM645 917L238 1146L414 1368L754 1067L645 917Z" />
<glyph unicode="&#xed;" horiz-adv-x="470" d="M42 0V821H405V0H42ZM91 897L-17 1047L322 1348L498 1126L91 897Z" />
<glyph unicode="&#xee;" horiz-adv-x="470" d="M42 0V821H405V0H42ZM483 872L225 1061L-34 872L-165 1046L225 1331L614 1046L483 872Z" />
<glyph unicode="&#xef;" horiz-adv-x="470" d="M42 0V821H405V0H42ZM444 944Q371 944 321 995T270 1118Q270 1190 320 1241T444 1293Q516 1293 566 1242T617 1118Q617 1046 567 995T444 944ZM33 944Q-40 944 -90 995T-141 1118Q-141 1190 -91 1241T33 1293Q105
1293 155 1242T206 1118Q206 1046 156 995T33 944Z" />
<glyph unicode="&#xf0;" horiz-adv-x="1134" d="M53 410Q53 523 96 605T207 740T353 819T502 845Q554 845 583 840T629 825T658 802Q650 826 629 862T580 934T525 987L376 846L230 994L315 1078Q278 1094 245 1106T186 1127T146 1139L227 1443Q253 1439 301 1424T416
1383T558 1320L666 1421L805 1270L741 1203Q836 1135 912 1027T1034 777T1080 464Q1080 311 1011 202T827 34T570 -24Q418 -24 302 32T119 186T53 410ZM440 410Q440 376 455 347T499 301T566 283Q605 283 633 300T677 346T693 410Q693 465 659 502T566 539Q509
539 475 501T440 410Z" />
<glyph unicode="&#xf1;" horiz-adv-x="1152" d="M707 845Q798 845 883 810T1024 697T1080 493V0H686V432Q686 496 655 533T570 571Q535 571 506 554T459 506T442 432V0H48V821H442V718Q455 750 493 779T587 826T707 845ZM175 963Q184 1031 213 1104T291 1229T412
1280Q476 1280 528 1262T625 1226T715 1208Q739 1208 756 1233T780 1280H966Q957 1212 929 1139T851 1014T731 963Q667 963 616 981T518 1017T423 1035Q399 1035 383 1011T361 963H175Z" />
<glyph unicode="&#xf2;" horiz-adv-x="1053" d="M514 -24Q374 -24 265 30T94 182T32 408Q32 536 94 634T265 789T514 845Q654 845 761 789T928 635T989 408Q989 280 929 183T761 31T514 -24ZM514 296Q547 296 570 309T605 349T618 410Q618 445 606 471T570 511T514
525Q481 525 458 511T421 471T408 410Q408 375 421 349T457 310T514 296ZM675 917L268 1146L444 1368L784 1067L675 917Z" />
<glyph unicode="&#xf3;" horiz-adv-x="1053" d="M514 -24Q374 -24 265 30T94 182T32 408Q32 536 94 634T265 789T514 845Q654 845 761 789T928 635T989 408Q989 280 929 183T761 31T514 -24ZM514 296Q547 296 570 309T605 349T618 410Q618 445 606 471T570 511T514
525Q481 525 458 511T421 471T408 410Q408 375 421 349T457 310T514 296ZM377 897L269 1047L608 1348L784 1126L377 897Z" />
<glyph unicode="&#xf4;" horiz-adv-x="1053" d="M514 -24Q374 -24 265 30T94 182T32 408Q32 536 94 634T265 789T514 845Q654 845 761 789T928 635T989 408Q989 280 929 183T761 31T514 -24ZM514 296Q547 296 570 309T605 349T618 410Q618 445 606 471T570 511T514
525Q481 525 458 511T421 471T408 410Q408 375 421 349T457 310T514 296ZM769 1128L511 1317L252 1128L121 1302L511 1587L900 1302L769 1128Z" />
<glyph unicode="&#xf5;" horiz-adv-x="1026" d="M514 -24Q374 -24 265 30T94 182T32 408Q32 536 94 634T265 789T514 845Q654 845 761 789T928 635T989 408Q989 280 929 183T761 31T514 -24ZM514 296Q547 296 570 309T605 349T618 410Q618 445 606 471T570 511T514
525Q481 525 458 511T421 471T408 410Q408 375 421 349T457 310T514 296ZM104 963Q113 1031 142 1104T220 1229T341 1280Q405 1280 457 1262T554 1226T644 1208Q668 1208 685 1233T709 1280H895Q886 1212 858 1139T780 1014T660 963Q596 963 545 981T447 1017T352
1035Q328 1035 312 1011T290 963H104Z" />
<glyph unicode="&#xf6;" horiz-adv-x="1053" d="M514 -24Q374 -24 265 30T94 182T32 408Q32 536 94 634T265 789T514 845Q654 845 761 789T928 635T989 408Q989 280 929 183T761 31T514 -24ZM514 296Q547 296 570 309T605 349T618 410Q618 445 606 471T570 511T514
525Q481 525 458 511T421 471T408 410Q408 375 421 349T457 310T514 296ZM730 944Q657 944 607 995T556 1118Q556 1190 606 1241T730 1293Q802 1293 852 1242T903 1118Q903 1046 853 995T730 944ZM319 944Q246 944 196 995T145 1118Q145 1190 195 1241T319 1293Q391
1293 441 1242T492 1118Q492 1046 442 995T319 944Z" />
<glyph unicode="&#xf7;" horiz-adv-x="1053" d="M512 1194Q576 1194 620 1150T664 1042Q664 981 620 937T512 893Q451 893 407 937T363 1042Q363 1105 407 1149T512 1194ZM86 506V822H944V506H86ZM512 434Q576 434 620 390T664 282Q664 221 620 177T512 133Q451
133 407 177T363 282Q363 345 407 389T512 434Z" />
<glyph unicode="&#xf8;" horiz-adv-x="1026" d="M874 880L970 798L134 -53L38 29L874 880ZM514 -24Q374 -24 265 30T94 182T32 408Q32 536 94 634T265 789T514 845Q654 845 761 789T928 635T989 408Q989 280 929 183T761 31T514 -24ZM514 296Q547 296 570 309T605
349T618 410Q618 445 606 471T570 511T514 525Q481 525 458 511T421 471T408 410Q408 375 421 349T457 310T514 296Z" />
<glyph unicode="&#xf9;" horiz-adv-x="1146" d="M443 464Q443 388 467 342T560 296Q630 296 654 342T678 464V821H1066V426Q1066 286 1007 185T834 30T560 -24Q400 -24 288 30T116 185T56 426V821H443V464ZM725 917L318 1146L494 1368L834 1067L725 917Z" />
<glyph unicode="&#xfa;" horiz-adv-x="1146" d="M443 464Q443 388 467 342T560 296Q630 296 654 342T678 464V821H1066V426Q1066 286 1007 185T834 30T560 -24Q400 -24 288 30T116 185T56 426V821H443V464ZM427 897L319 1047L658 1348L834 1126L427 897Z" />
<glyph unicode="&#xfb;" horiz-adv-x="1146" d="M443 464Q443 388 467 342T560 296Q630 296 654 342T678 464V821H1066V426Q1066 286 1007 185T834 30T560 -24Q400 -24 288 30T116 185T56 426V821H443V464ZM819 1128L561 1317L302 1128L171 1302L561 1587L950
1302L819 1128Z" />
<glyph unicode="&#xfc;" horiz-adv-x="1146" d="M443 464Q443 388 467 342T560 296Q630 296 654 342T678 464V821H1066V426Q1066 286 1007 185T834 30T560 -24Q400 -24 288 30T116 185T56 426V821H443V464ZM780 944Q707 944 657 995T606 1118Q606 1190 656 1241T780
1293Q852 1293 902 1242T953 1118Q953 1046 903 995T780 944ZM369 944Q296 944 246 995T195 1118Q195 1190 245 1241T369 1293Q441 1293 491 1242T542 1118Q542 1046 492 995T369 944Z" />
<glyph unicode="&#xfd;" horiz-adv-x="1102" d="M534 336L718 821H1102L530 -416H138L330 0L-16 821H374L534 336ZM406 897L298 1047L637 1348L813 1126L406 897Z" />
<glyph unicode="&#xfe;" horiz-adv-x="1165" d="M64 0H453V-416H64V0ZM64 0V1376H456V725Q467 751 502 778T594 825T720 845Q843 845 930 783T1064 622T1110 410Q1110 297 1064 198T931 38T720 -24Q667 -24 616 -6T522 43T453 115V0H64ZM725 410Q725 444 708 474T661
522T590 541Q550 541 520 523T473 474T456 410Q456 376 473 346T520 298T590 280Q630 280 660 298T708 346T725 410Z" />
<glyph unicode="&#xff;" horiz-adv-x="1102" d="M534 336L718 821H1102L530 -416H138L330 0L-16 821H374L534 336ZM759 944Q686 944 636 995T585 1118Q585 1190 635 1241T759 1293Q831 1293 881 1242T932 1118Q932 1046 882 995T759 944ZM348 944Q275 944 225
995T174 1118Q174 1190 224 1241T348 1293Q420 1293 470 1242T521 1118Q521 1046 471 995T348 944Z" />
<glyph unicode="&#x2013;" horiz-adv-x="904" d="M-10 288V621H891V288H-10Z" />
<glyph unicode="&#x2014;" horiz-adv-x="1768" d="M-42 288V621H1787V288H-42Z" />
<glyph unicode="&#x2018;" horiz-adv-x="506" d="M272 704Q184 704 126 766T67 950Q67 1051 106 1131T209 1268T347 1358L432 1294Q410 1283 365 1252T283 1177T245 1080Q256 1091 280 1095T326 1099Q379 1099 428 1057T477 918Q477 819 418 762T272 704Z" />
<glyph unicode="&#x2019;" horiz-adv-x="506" d="M149 722L64 786Q87 797 131 828T213 903T251 1000Q241 990 217 986T170 981Q117 981 68 1023T19 1162Q19 1261 78 1318T224 1376Q312 1376 370 1314T429 1130Q429 1029 390 949T288 811T149 722Z" />
<glyph unicode="&#x201a;" horiz-adv-x="506" d="M270 402Q356 402 417 343T478 163Q478 64 436 -33T324 -210T173 -334L82 -227Q119 -207 162 -173T243 -94T296 0Q278 -11 238 -11Q171 -11 116 42T61 192Q61 250 89 297T166 373T270 402Z" />
<glyph unicode="&#x201c;" horiz-adv-x="1120" d="M816 704Q728 704 670 766T611 950Q611 1051 650 1131T753 1268T891 1358L976 1294Q954 1283 909 1252T827 1177T789 1080Q800 1091 824 1095T870 1099Q923 1099 972 1057T1021 918Q1021 819 962 762T816 704ZM320
704Q232 704 174 766T115 950Q115 1051 154 1131T257 1268T395 1358L480 1294Q458 1283 413 1252T331 1177T293 1080Q304 1091 328 1095T374 1099Q427 1099 476 1057T525 918Q525 819 466 762T320 704Z" />
<glyph unicode="&#x201d;" horiz-adv-x="1120" d="M698 720L613 784Q636 795 680 826T762 901T800 998Q790 988 766 984T719 979Q666 979 617 1021T568 1160Q568 1259 627 1316T773 1374Q861 1374 919 1312T978 1128Q978 1027 939 947T837 809T698 720ZM202 720L117
784Q140 795 184 826T266 901T304 998Q294 988 270 984T223 979Q170 979 121 1021T72 1160Q72 1259 131 1316T277 1374Q365 1374 423 1312T482 1128Q482 1027 443 947T341 809T202 720Z" />
<glyph unicode="&#x201e;" horiz-adv-x="1026" d="M737 402Q823 402 884 343T945 163Q945 64 903 -33T791 -210T640 -334L549 -227Q586 -207 629 -173T710 -94T763 0Q745 -11 705 -11Q638 -11 583 42T528 192Q528 250 556 297T633 373T737 402ZM270 402Q356 402
417 343T478 163Q478 64 436 -33T324 -210T173 -334L82 -227Q119 -207 162 -173T243 -94T296 0Q278 -11 238 -11Q171 -11 116 42T61 192Q61 250 89 297T166 373T270 402Z" />
<glyph unicode="&#x2022;" horiz-adv-x="1186" d="M579 946Q683 946 768 896T904 760T955 570Q955 467 904 382T768 247T579 197Q476 197 392 247T257 383T206 570Q206 673 256 758T391 895T579 946Z" />
<glyph unicode="&#x2039;" horiz-adv-x="640" d="M547 176L360 29L35 445L360 862L547 714L341 445L547 176Z" />
<glyph unicode="&#x203a;" horiz-adv-x="640" d="M266 29L79 176L285 445L79 714L266 862L591 445L266 29Z" />
</font>
</defs>
</svg>
